<?xml version="1.0" encoding="UTF-8"?>
<!-- Generated by Pixelmator Pro 3.5.8 -->
<svg width="128" height="128" viewBox="0 0 128 128" xmlns="http://www.w3.org/2000/svg">
    <path id="Path" fill="#ee5533" stroke="#212532" stroke-width="4" d="M 16 2 L 112 2 C 119.731987 2 126 8.268013 126 16 L 126 112 C 126 119.731987 119.731987 126 112 126 L 16 126 C 8.268014 126 2 119.731987 2 112 L 2 16 C 2 8.268013 8.268014 2 16 2 Z"/>
    <g id="Group">
        <g id="g1">
            <path id="path1" fill="#ffffff" stroke="none" d="M 22.927 80.294998 L 22.927 83.627998 C 50.331664 107.464002 77.736331 107.464002 105.140999 83.627998 L 105.140999 80.294998 Z"/>
            <path id="path2" fill="#f79122" stroke="none" d="M 22.927 80.294998 L 38.278999 81.709 C 39.087001 81.776332 39.592 82.247665 39.793999 83.123001 L 40.198002 89.889999 L 53.529999 90.900002 L 54.338001 84.738998 C 54.472668 83.998332 54.977667 83.493332 55.853001 83.223999 L 72.214996 83.223999 C 73.090332 83.493332 73.595334 83.998332 73.730003 84.738998 L 74.538002 90.900002 L 87.870003 89.889999 L 88.274002 83.123001 C 88.476003 82.247665 88.981003 81.776332 89.789001 81.709 L 105.140999 80.294998 L 105.140999 55.448997 C 107.160998 52.823001 109.046331 50.096001 110.796997 47.267998 C 108.440333 43.295331 105.646001 39.659332 102.414001 36.360001 C 99.518667 37.706665 96.758001 39.288999 94.132004 41.107002 C 91.43867 38.615669 88.476003 36.461001 85.244003 34.642998 C 85.715332 31.208997 85.984665 27.774999 86.052002 24.341003 C 82.079336 22.455668 77.938334 21.041667 73.628998 20.098999 C 71.878332 22.994334 70.329666 25.990667 68.983002 29.087997 C 65.683665 28.616664 62.384331 28.616664 59.084999 29.087997 C 57.738332 25.990667 56.189665 22.994334 54.438999 20.098999 C 50.129665 21.041667 45.988665 22.455668 42.015999 24.341003 C 42.083333 27.774999 42.352667 31.208997 42.824001 34.642998 C 39.592002 36.461001 36.629335 38.615669 33.936001 41.107002 C 31.31 39.288999 28.549333 37.706665 25.653999 36.360001 C 22.422 39.659332 19.627666 43.295331 17.271 47.267998 C 19.021666 50.096001 20.907 52.823001 22.927 55.448997 Z M 22.927 83.627998 L 22.927 87.567001 C 22.927 115.443001 105.040001 115.443001 105.040001 87.567001 L 105.040001 83.627998 L 91.505997 84.839996 L 91.000999 91.808998 C 90.866336 92.482333 90.395002 92.920001 89.586998 93.122002 L 73.224998 94.233002 C 72.417 94.233002 71.878334 93.862668 71.609001 93.122002 L 70.598999 86.556999 L 57.469002 86.556999 L 56.459 93.122002 C 56.189667 93.862668 55.651 94.233002 54.842999 94.233002 L 38.480999 93.122002 C 37.673 92.920001 37.201668 92.482333 37.067001 91.808998 L 36.562 84.839996 Z"/>
            <path id="path3" fill="#ffffff" stroke="none" d="M 61.105 72.921997 C 61.408001 76.356003 66.660004 76.356003 66.962997 72.921997 L 66.962997 64.236 C 66.660004 60.802002 61.408001 60.802002 61.105 64.236 Z"/>
            <path id="path4" fill="#ffffff" stroke="none" d="M 94.637001 65.447998 C 94.637001 70.468269 90.567268 74.537994 85.546997 74.537994 C 80.526733 74.537994 76.457001 70.468269 76.457001 65.447998 C 76.457001 60.427734 80.526733 56.358002 85.546997 56.358002 C 90.567268 56.358002 94.637001 60.427734 94.637001 65.447998 Z"/>
            <path id="path5" fill="#ffffff" stroke="none" d="M 51.611 65.447998 C 51.611 70.468269 47.541267 74.537994 42.521 74.537994 C 37.500732 74.537994 33.431 70.468269 33.431 65.447998 C 33.431 60.427734 37.500732 56.358002 42.521 56.358002 C 47.541267 56.358002 51.611 60.427734 51.611 65.447998 Z"/>
        </g>
        <g id="g2">
            <path id="path6" fill="#414042" stroke="none" d="M 49.389 66.054001 C 49.389 69.400848 46.675846 72.113998 43.328999 72.113998 C 39.982155 72.113998 37.269001 69.400848 37.269001 66.054001 C 37.269001 62.707153 39.982155 59.994003 43.328999 59.994003 C 46.675846 59.994003 49.389 62.707153 49.389 66.054001 Z"/>
            <path id="path7" fill="#414042" stroke="none" d="M 90.799004 66.054001 C 90.799004 69.400848 88.085846 72.113998 84.738998 72.113998 C 81.392151 72.113998 78.679001 69.400848 78.679001 66.054001 C 78.679001 62.707153 81.392151 59.994003 84.738998 59.994003 C 88.085846 59.994003 90.799004 62.707153 90.799004 66.054001 Z"/>
        </g>
    </g>
</svg>
